<svg version="1.0" xmlns="http://www.w3.org/2000/svg" width="30" height="30" viewBox="0 0 650.000000 650.000000" preserveAspectRatio="xMidYMid meet"><g transform="translate(0.000000,650.000000) scale(0.100000,-0.100000)" fill="#000000" stroke="none"><path d="M2679 6276 c-6 -6 -171 -16 -257 -15 -28 0 -56 -3 -62 -6 -5 -3 -48 -8 -96 -10 -48 -3 -90 -8 -93 -12 -6 -9 -40 -14 -83 -13 -15 0 -30 -4 -33 -10 -4 -6 -10 -8 -15 -5 -11 7 -233 -25 -246 -36 -6 -5 -13 -7 -16 -4 -6 6 -181 -29 -221 -44 -16 -6 -41 -11 -57 -11 -16 0 -31 -4 -35 -10 -3 -5 -12 -7 -20 -4 -7 3 -29 -1 -47 -10 -18 -8 -87 -31 -153 -51 -66 -20 -138 -45 -161 -56 -22 -10 -44 -19 -48 -19 -4 0 -36 -13 -71 -30 -35 -16 -68 -30 -73 -30 -5 0 -17 -9 -27 -20 -10 -11 -22 -17 -27 -14 -9 6 -86 -36 -110 -59 -7 -7 -29 -23 -49 -35 -59 -36 -201 -195 -193 -216 3 -8 1 -17 -5 -20 -6 -4 -8 -13 -4 -21 3 -8 0 -15 -6 -15 -8 0 -11 -84 -11 -288 l0 -288 98 -100 c53 -55 159 -165 235 -244 76 -80 191 -199 255 -265 244 -251 662 -684 831 -859 l124 -129 38 154 c47 188 62 233 123 359 41 84 56 109 136 221 142 198 396 423 566 502 17 8 35 20 38 26 4 6 14 11 22 11 13 0 57 17 129 50 38 18 340 88 424 99 277 36 634 -29 918 -166 51 -25 97 -51 104 -59 6 -8 16 -14 21 -14 25 0 246 -181 332 -271 l96 -101 128 132 c70 72 199 206 287 298 88 91 202 209 253 260 l92 95 0 288 c0 197 -3 289 -11 289 -5 0 -8 4 -4 9 3 5 1 12 -5 16 -5 3 -10 16 -10 29 0 12 -12 38 -27 57 -44 56 -174 179 -189 179 -8 0 -17 6 -20 14 -3 8 -20 20 -37 27 -18 7 -38 19 -46 27 -7 7 -19 11 -26 8 -7 -2 -21 4 -31 15 -9 10 -21 19 -26 19 -5 0 -38 14 -73 30 -35 17 -70 30 -77 30 -7 0 -27 9 -44 19 -17 10 -89 36 -160 56 -71 21 -141 44 -157 52 -15 7 -33 13 -40 12 -6 -1 -19 0 -27 4 -8 3 -37 10 -65 16 -27 5 -92 19 -143 30 -51 12 -96 20 -100 20 -4 -1 -9 0 -12 1 -24 9 -242 40 -250 35 -5 -3 -12 0 -16 6 -3 6 -19 9 -35 5 -15 -3 -31 -1 -34 5 -4 5 -14 9 -23 8 -10 -1 -25 1 -34 5 -10 5 -51 9 -93 9 -41 1 -75 6 -75 10 0 5 -29 7 -65 6 -36 -1 -68 1 -72 4 -11 12 -43 8 -43 -5 0 -10 -2 -10 -8 -1 -4 6 -18 12 -32 12 -116 6 -916 11 -921 7z m864 -346 c261 -15 638 -57 665 -74 5 -3 51 -10 103 -16 51 -6 114 -17 139 -25 25 -8 112 -31 195 -50 82 -20 163 -42 180 -49 16 -7 48 -18 70 -23 136 -36 392 -170 455 -238 l25 -27 -50 -44 c-27 -24 -54 -44 -59 -44 -5 0 -17 -6 -25 -14 -21 -19 -162 -88 -236 -116 -33 -12 -80 -31 -105 -41 -80 -32 -315 -96 -455 -123 -44 -8 -112 -22 -150 -30 -39 -9 -91 -17 -115 -20 -25 -3 -92 -12 -150 -20 -264 -39 -431 -49 -885 -52 -247 -1 -497 2 -555 6 -224 18 -359 32 -455 47 -55 8 -116 16 -135 18 -47 4 -158 24 -195 35 -16 5 -66 16 -110 24 -96 17 -288 67 -367 95 -32 12 -84 30 -115 41 -91 32 -255 111 -284 136 -8 8 -20 14 -25 14 -5 0 -32 20 -59 44 l-50 44 25 27 c32 35 107 85 195 129 90 45 264 116 286 116 9 0 29 6 44 14 15 8 95 30 178 50 84 20 175 44 204 52 29 8 89 19 134 24 45 5 96 14 113 19 61 19 411 58 626 70 215 12 746 12 943 1z"/><path d="M3550 4354 c-315 -35 -555 -143 -764 -344 -196 -188 -317 -406 -373 -670 -21 -101 -24 -357 -4 -460 125 -664 724 -1108 1390 -1031 208 25 441 116 600 236 41 31 79 54 85 51 6 -2 175 -132 376 -287 201 -156 389 -296 419 -311 42 -22 68 -28 115 -28 226 0 365 219 265 419 -36 71 -10 49 -499 426 -184 142 -337 259 -338 261 -2 1 8 37 22 79 48 143 61 228 61 400 -1 271 -60 478 -198 688 -184 281 -464 473 -797 548 -82 18 -287 32 -360 23z m299 -299 c344 -73 620 -321 731 -655 149 -453 -64 -960 -495 -1177 -295 -149 -654 -132 -946 43 -96 57 -236 190 -298 282 -163 242 -210 551 -126 831 144 482 644 780 1134 676z"/><path d="M3480 3652 c-76 -31 -165 -83 -213 -123 -63 -54 -132 -161 -171 -267 -22 -58 -23 -247 -1 -318 38 -128 127 -251 230 -318 131 -87 205 -105 388 -98 l38 2 -1 180 -2 180 59 62 c32 34 121 126 198 204 183 187 170 169 154 207 -36 92 -156 206 -269 258 -14 7 -41 19 -60 28 -55 25 -291 27 -350 3z"/><path d="M2422 1548 l3 -423 23 -23 c12 -12 22 -26 22 -32 0 -32 145 -145 197 -153 11 -1 31 -10 44 -18 13 -9 55 -24 93 -33 57 -15 70 -15 77 -4 7 11 9 11 9 -1 0 -9 8 -12 25 -9 14 3 25 1 25 -3 0 -5 65 -9 145 -9 80 0 145 4 145 9 0 4 11 6 25 3 17 -3 25 0 25 9 0 11 2 11 8 1 7 -10 20 -10 60 -1 29 6 52 15 52 20 0 4 7 6 15 3 8 -4 15 -1 15 7 0 7 3 9 6 6 4 -3 16 -1 28 5 11 7 30 13 41 15 36 6 110 56 158 107 26 28 47 55 47 60 0 5 8 18 18 29 14 16 18 44 20 175 l4 155 -64 -6 c-93 -8 -291 19 -473 65 -179 45 -217 60 -382 148 -71 38 -343 244 -343 260 0 4 -16 20 -36 35 l-35 27 3 -424z"/></g></svg>